<svg width="5" height="5" viewBox="0 0 5 5" fill="none" xmlns="http://www.w3.org/2000/svg">
<path d="M2.18749 4.37494C1.78645 4.37494 1.42021 4.27717 1.08877 4.08162C0.757328 3.88276 0.492176 3.61761 0.293313 3.28617C0.0977635 2.95473 -1.11163e-05 2.58849 -1.11163e-05 2.18744C-1.11163e-05 1.78309 0.0977635 1.41685 0.293313 1.08872C0.492176 0.757283 0.757328 0.493789 1.08877 0.29824C1.42021 0.099376 1.78645 -5.57899e-05 2.18749 -5.57899e-05C2.59184 -5.57899e-05 2.95809 0.099376 3.28621 0.29824C3.61765 0.493789 3.88114 0.757283 4.07669 1.08872C4.27556 1.41685 4.37499 1.78309 4.37499 2.18744C4.37499 2.58849 4.27556 2.95473 4.07669 3.28617C3.88114 3.61761 3.61765 3.88276 3.28621 4.08162C2.95809 4.27717 2.59184 4.37494 2.18749 4.37494Z" fill="#60A5FA"/>
</svg>
